Patient4_TMGait_0pt4_02_left_14_GRF.mot
version=1
nRows=65
nColumns=19
inDegrees=no
endheader
time	F1x	F1y	F1z	M1x	M1y	M1z	F2x	F2y	F2z	M2x	M2y	M2z	EC1x	EC1y	EC1z	EC2x	EC2y	EC2z
18.68	-8.9544	3.7069	-3.3921	0.21788	1.365	10.0757	-15.7862	724.0797	-68.4904	273.2597	79.1228	803.2297	-0.0592	0.0182	-0.0073	-0.0462	0.0165	0.9585
18.6931	-5.8646	3.0069	-2.2356	-0.018765	0.88541	7.2573	-15.469	727.5	-67.029	273.5625	77.9559	800.756	-0.0592	0.0182	-0.0073	-0.0462	0.0165	0.9585
18.7063	-3.3085	2.4196	-1.2656	-0.23199	0.48883	4.9225	-15.0721	730.6375	-65.3675	273.871	76.3416	798.2941	-0.0592	0.0182	-0.0073	-0.0462	0.0165	0.9585
18.7194	-1.4027	1.9847	-0.53664	-0.40942	0.19342	3.1955	-14.6066	733.8635	-63.6415	274.3636	74.4093	796.521	-0.0592	0.0182	-0.0073	-0.0462	0.0165	0.9585
18.7326	-0.11064	1.6942	-0.033235	-0.5455	-0.013263	2.036	-14.0586	737.6787	-62.0005	275.2208	72.3358	796.0144	-0.0592	0.0182	-0.0073	-0.0462	0.0165	0.9585
18.7457	0.64777	1.5328	0.27562	-0.64329	-0.14817	1.3728	-13.4171	742.4126	-60.5727	276.5378	70.2959	797.0302	-0.0592	0.0182	-0.0073	-0.0462	0.0165	0.9585
18.7589	1.015	1.4278	0.44669	-0.69501	-0.237	1.0262	-12.6455	748.1105	-59.4541	278.2952	68.4317	799.4654	-0.0592	0.0182	-0.0073	-0.0462	0.0165	0.9585
18.772	1.0861	1.3216	0.52562	-0.69697	-0.30559	0.8463	-11.6905	754.5133	-58.6918	280.3593	66.8242	802.8887	-0.0592	0.0182	-0.0073	-0.0462	0.0165	0.9585
18.7851	0.96546	1.1301	0.56184	-0.63724	-0.37934	0.6528	-10.5228	761.073	-58.2841	282.5009	65.4959	806.5816	-0.0592	0.0182	-0.0073	-0.0462	0.0165	0.9585
18.7983	0.72798	0.76686	0.58417	-0.49859	-0.4718	0.30146	-9.1318	767.0838	-58.1819	284.4386	64.4111	809.7093	-0.0592	0.0182	-0.0073	-0.0462	0.0165	0.9585
18.8114	0.42918	0.14583	0.61441	-0.26031	-0.59275	-0.33602	-7.4985	771.7707	-58.3057	285.8763	63.4933	811.4037	-0.0592	0.0182	-0.0073	-0.0462	0.0165	0.9585
18.8246	0.12744	-0.7979	0.65986	0.093763	-0.73461	-1.3671	-5.6735	774.4022	-58.5553	286.5411	62.6614	810.9035	-0.0592	0.0182	-0.0073	-0.0462	0.0165	0.9585
18.8377	-0.13687	-2.0773	0.71282	0.56717	-0.87269	-2.8077	-3.7247	774.3946	-58.8351	286.2184	61.8438	807.6335	-0.0592	0.0182	-0.0073	-0.0462	0.0165	0.9585
18.8509	-0.27961	-3.6472	0.75439	1.1418	-0.95657	-4.6197	-1.7304	771.4523	-59.0848	284.8005	61.0037	801.3408	-0.0592	0.0182	-0.0073	-0.0462	0.0165	0.9585
18.864	-0.23261	-5.3057	0.7493	1.7501	-0.92128	-6.5605	0.24488	765.66	-59.276	282.3243	60.1286	792.1613	-0.0592	0.0182	-0.0073	-0.0462	0.0165	0.9585
18.8771	0.12706	-6.6905	0.65001	2.2643	-0.6707	-8.2001	2.202	757.5209	-59.4276	278.9817	59.2321	780.6394	-0.0592	0.0182	-0.0073	-0.0462	0.0165	0.9585
18.8903	0.93137	-7.1988	0.39374	2.4673	-0.083567	-8.8124	4.191	747.906	-59.5896	275.0988	58.3398	767.6792	-0.0592	0.0182	-0.0073	-0.0462	0.0165	0.9585
18.9034	2.3212	-5.9292	-0.093999	2.0346	0.97713	-7.343	6.3063	737.8589	-59.8384	271.0689	57.4923	754.3333	-0.0592	0.0182	-0.0073	-0.0462	0.0165	0.9585
18.9166	4.4325	-1.6824	-0.88896	0.53524	2.6443	-2.3937	8.5926	728.3921	-60.2319	267.2719	56.7299	741.6417	-0.0592	0.0182	-0.0073	-0.0462	0.0165	0.9585
18.9297	7.312	6.9981	-2.0548	-2.5515	5.0056	7.7521	11.0551	720.2102	-60.8104	263.9705	56.0929	730.3476	-0.0592	0.0182	-0.0073	-0.0462	0.0165	0.9585
18.9429	10.8773	21.6526	-3.6042	-7.7719	8.0385	24.8935	13.5886	713.4944	-61.5393	261.23	55.5921	720.7026	-0.0592	0.0182	-0.0073	-0.0462	0.0165	0.9585
18.956	14.7636	43.5966	-5.4643	-15.5889	11.5233	50.5844	15.9703	707.77	-62.3107	258.8698	55.2067	712.334	-0.0592	0.0182	-0.0073	-0.0462	0.0165	0.9585
18.9691	18.2555	73.3392	-7.4123	-26.1807	14.9362	85.4329	17.9333	701.9516	-62.9363	256.4814	54.8564	704.2724	-0.0592	0.0182	-0.0073	-0.0462	0.0165	0.9585
18.9823	20.0998	109.7891	-9.0209	-39.1528	17.3259	128.1889	19.2062	694.5231	-63.1837	253.4947	54.4174	695.1262	-0.0592	0.0182	-0.0073	-0.0462	0.0165	0.9585
18.9954	18.7077	149.4787	-9.5955	-53.2515	17.3259	174.844	19.6055	683.8173	-62.8231	249.2961	53.7324	683.2969	-0.0592	0.0182	-0.0073	-0.0462	0.0165	0.9585
19.0086	13.8048	187.2121	-8.3247	-66.5723	13.929	219.4239	19.0901	668.5826	-61.7099	243.4309	52.6765	667.5451	-0.0592	0.0182	-0.0073	-0.0462	0.0165	0.9585
19.0217	6.8619	218.6808	-5.0755	-77.5702	7.5918	256.8023	17.8516	648.4559	-59.8469	235.7796	51.1923	647.4143	-0.0592	0.0182	-0.0073	-0.0462	0.0165	0.9585
19.0349	-0.41818	243.6453	-0.68574	-86.1715	-0.1417	286.443	16.2303	624.0253	-57.4336	226.5681	49.352	623.3292	-0.0592	0.0182	-0.0073	-0.0462	0.0165	0.9585
19.048	-7.0201	264.5079	4.4423	-93.2396	-8.4076	311.0048	14.6669	596.2639	-54.7348	216.1689	47.2501	596.0621	-0.0592	0.0182	-0.0073	-0.0462	0.0165	0.9585
19.0611	-12.3636	284.1546	9.6357	-99.8362	-16.2604	333.7197	13.5407	565.9956	-51.8638	204.9058	44.8595	566.2661	-0.0592	0.0182	-0.0073	-0.0462	0.0165	0.9585
19.0743	-16.3771	304.8691	14.6695	-106.7893	-23.3774	357.2259	13.0473	533.5919	-48.7156	192.9432	42.0135	534.2111	-0.0592	0.0182	-0.0073	-0.0462	0.0165	0.9585
19.0874	-19.0779	327.88	19.0699	-114.5684	-29.2635	382.8442	13.2227	499.0644	-45.0629	180.3082	38.4902	499.8711	-0.0592	0.0182	-0.0073	-0.0462	0.0165	0.9585
19.1006	-20.5469	353.6476	22.8506	-123.3381	-33.9348	411.0537	13.9354	462.1944	-40.7336	166.9289	34.1737	463.0526	-0.0592	0.0182	-0.0073	-0.0462	0.0165	0.9585
19.1137	-20.8197	382.2734	25.9293	-133.1261	-37.3451	441.8765	14.9234	422.6961	-35.6933	152.6943	29.1092	423.5099	-0.0592	0.0182	-0.0073	-0.0462	0.0165	0.9585
19.1269	-19.9462	413.5527	28.6765	-143.8269	-39.9097	475.0818	15.8203	380.4472	-30.118	137.5351	23.5723	381.1827	-0.0592	0.0182	-0.0073	-0.0462	0.0165	0.9585
19.14	-18.0366	447.0333	31.2965	-155.2558	-41.9126	510.1418	16.2561	335.6894	-24.3067	121.504	17.9628	336.3636	-0.0592	0.0182	-0.0073	-0.0462	0.0165	0.9585
19.1531	-15.3444	482.1683	34.2425	-167.1878	-43.9248	546.4718	15.8899	289.1288	-18.6371	104.82	12.7449	289.8045	-0.0592	0.0182	-0.0073	-0.0462	0.0165	0.9585
19.1663	-12.1897	518.6365	37.6699	-179.4917	-46.2473	583.7645	14.5276	241.9889	-13.4502	87.8966	8.3007	242.739	-0.0592	0.0182	-0.0073	-0.0462	0.0165	0.9585
19.1794	-8.8656	556.4431	41.7298	-192.1571	-49.1491	622.1109	12.1983	195.9295	-9.033	71.3143	4.8922	196.8045	-0.0592	0.0182	-0.0073	-0.0462	0.0165	0.9585
19.1926	-5.6659	595.6456	46.2219	-205.2102	-52.538	661.6457	9.1456	152.7926	-5.5297	55.7335	2.5771	153.8005	-0.0592	0.0182	-0.0073	-0.0462	0.0165	0.9585
19.2057	-2.7976	635.8738	51.0134	-218.5312	-56.3475	702.0353	5.7828	114.2286	-2.9708	41.7586	1.25	115.3239	-0.0592	0.0182	-0.0073	-0.0462	0.0165	0.9585
19.2189	-0.42085	676.1313	55.8477	-231.7861	-60.3689	742.2604	2.549	81.4019	-1.2467	29.8234	0.66401	82.513	-0.0592	0.0182	-0.0073	-0.0462	0.0165	0.9585
19.232	1.3848	714.8325	60.5957	-244.4371	-64.4866	780.668	-0.18424	54.7515	-0.20096	20.1051	0.55148	55.7976	-0.0592	0.0182	-0.0073	-0.0462	0.0165	0.9585
19.2451	2.6333	750.1302	65.0039	-255.8636	-68.4258	815.2987	-2.2017	34.1106	0.35673	12.5597	0.66036	35.0332	-0.0592	0.0182	-0.0073	-0.0462	0.0165	0.9585
19.2583	3.4358	780.213	68.9209	-265.458	-71.9778	844.2459	-3.3779	18.9205	0.56453	6.994	0.82014	19.688	-0.0592	0.0182	-0.0073	-0.0462	0.0165	0.9585
19.2714	3.9538	803.5654	72.1359	-272.7195	-74.8651	865.9104	-3.7312	8.431	0.54968	3.1409	0.92112	9.0376	-0.0592	0.0182	-0.0073	-0.0462	0.0165	0.9585
19.2846	4.3383	819.1838	74.5827	-277.3195	-76.9561	879.2627	-3.4832	1.8067	0.39957	0.70126	0.96035	2.2655	-0.0592	0.0182	-0.0073	-0.0462	0.0165	0.9585
19.2977	4.7396	826.7474	76.17	-279.1636	-78.1015	883.9891	-2.9354	-1.8125	0.2097	-0.63752	0.94814	-1.4729	-0.0592	0.0182	-0.0073	-0.0462	0.0165	0.9585
19.3109	5.2536	826.6886	76.9314	-278.4117	-78.2936	880.6122	-2.3001	-3.3051	0.018022	-1.1969	0.91506	-3.0437	-0.0592	0.0182	-0.0073	-0.0462	0.0165	0.9585
19.324	5.9487	820.1419	76.8781	-275.4638	-77.5295	870.392	-1.7097	-3.4529	-0.13636	-1.2615	0.86345	-3.229	-0.0592	0.0182	-0.0073	-0.0462	0.0165	0.9585
19.3371	6.8274	808.7341	76.1487	-270.8778	-75.96	855.1178	-1.2263	-2.8496	-0.25484	-1.0511	0.81067	-2.6324	-0.0592	0.0182	-0.0073	-0.0462	0.0165	0.9585
19.3503	7.8466	794.356	74.8778	-265.2956	-73.7611	836.8438	-0.85784	-1.9135	-0.33036	-0.71818	0.75268	-1.6902	-0.0592	0.0182	-0.0073	-0.0462	0.0165	0.9585
19.3634	8.9176	778.9531	73.2882	-259.371	-71.2081	817.6711	-0.60783	-0.92535	-0.3807	-0.36317	0.70923	-0.68341	-0.0592	0.0182	-0.0073	-0.0462	0.0165	0.9585
19.3766	9.9584	764.3389	71.5586	-253.7141	-68.5344	799.5241	-0.44779	-0.032018	-0.40587	-0.039387	0.67554	0.22901	-0.0592	0.0182	-0.0073	-0.0462	0.0165	0.9585
19.3897	10.904	751.9903	69.8875	-248.8286	-65.9778	783.9356	-0.35451	0.70547	-0.42361	0.23012	0.66113	0.98124	-0.0592	0.0182	-0.0073	-0.0462	0.0165	0.9585
19.4029	11.7488	742.9616	68.3973	-245.0827	-63.68	771.9523	-0.31759	1.2708	-0.43058	0.43938	0.65947	1.5611	-0.0592	0.0182	-0.0073	-0.0462	0.0165	0.9585
19.416	12.5448	737.7792	67.1956	-242.6702	-61.7384	764.0365	-0.31804	1.6692	-0.44073	0.59068	0.67962	1.9734	-0.0592	0.0182	-0.0073	-0.0462	0.0165	0.9585
19.4291	13.3767	736.4713	66.3172	-241.6201	-60.163	760.1146	-0.34822	1.9236	-0.46011	0.69218	0.72658	2.2374	-0.0592	0.0182	-0.0073	-0.0462	0.0165	0.9585
19.4423	14.3338	738.6505	65.7632	-241.8214	-58.9218	759.6949	-0.40677	2.0371	-0.49744	0.74472	0.80771	2.3488	-0.0592	0.0182	-0.0073	-0.0462	0.0165	0.9585
19.4554	15.4986	743.6224	65.4812	-243.0561	-57.9275	761.9885	-0.50544	2.0029	-0.55577	0.74278	0.92763	2.2992	-0.0592	0.0182	-0.0073	-0.0462	0.0165	0.9585
19.4686	16.9281	750.5229	65.3875	-245.045	-57.065	766.0585	-0.63808	1.791	-0.64147	0.67092	1.0857	2.0511	-0.0592	0.0182	-0.0073	-0.0462	0.0165	0.9585
19.4817	18.6504	758.421	65.3832	-247.4808	-56.2091	770.9311	-0.80605	1.3405	-0.75648	0.50402	1.2772	1.5312	-0.0592	0.0182	-0.0073	-0.0462	0.0165	0.9585
19.4949	20.6692	766.3608	65.3613	-250.0399	-55.2382	775.6563	-1.0099	0.57604	-0.89489	0.21128	1.4934	0.64021	-0.0592	0.0182	-0.0073	-0.0462	0.0165	0.9585
19.508	22.9521	773.3995	65.2379	-252.3916	-54.0673	779.3382	-1.2139	-0.56661	-1.0529	-0.23478	1.7235	-0.71555	-0.0592	0.0182	-0.0073	-0.0462	0.0165	0.9585
19.5211	25.4294	778.6915	64.9533	-254.2226	-52.6516	781.2021	-1.3749	-2.1261	-1.2062	-0.84986	1.9313	-2.5843	-0.0592	0.0182	-0.0073	-0.0462	0.0165	0.9585
